<svg width="210" height="58" viewBox="0 0 210 58" fill="none" xmlns="http://www.w3.org/2000/svg">
<path d="M55.1633 33.5065L53.9633 31.1225H47.2593L46.0593 33.5065H42.8913L48.6673 22.3065H52.5553L58.3473 33.5065H55.1633ZM48.3313 28.9785H52.8913L50.6193 24.4345L48.3313 28.9785ZM67.1637 22.3065C70.0597 22.3065 72.6037 24.0985 72.6037 27.9065C72.6037 31.7145 70.0597 33.5065 67.1637 33.5065H59.0357V22.3065H67.1637ZM66.0757 31.0905C68.2517 31.0905 69.7237 30.6265 69.7237 27.9065C69.7237 25.1865 68.2517 24.7225 66.0757 24.7225H61.9157V31.0905H66.0757ZM81.773 22.3065C84.669 22.3065 87.213 24.0985 87.213 27.9065C87.213 31.7145 84.669 33.5065 81.773 33.5065H73.645V22.3065H81.773ZM80.685 31.0905C82.861 31.0905 84.333 30.6265 84.333 27.9065C84.333 25.1865 82.861 24.7225 80.685 24.7225H76.525V31.0905H80.685ZM107.579 24.7225H98.6188V27.5705H106.619V30.0025H98.6188V33.5065H95.7388V22.3065H107.579V24.7225ZM111.416 22.3065V33.5065H108.536V22.3065H111.416ZM115.572 31.0905H124.212V33.5065H112.692V22.3065H115.572V31.0905ZM137.173 24.5945H128.213V26.8665H137.173V28.9465H128.213V31.2185H137.173V33.5065H125.333V22.3065H137.173V24.5945Z" fill="white"/>
<path d="M171.902 27.424V29.696H166.734V34H163.998V29.696H159.102V27.424H163.998V23.12H166.734V27.424H171.902Z" fill="white"/>
</svg>
