<svg width="1302" height="145" viewBox="0 0 1302 145" fill="none" xmlns="http://www.w3.org/2000/svg">
<path opacity="0.6" d="M876.735 83.5349C876.735 42.8019 898.862 23.3573 950.49 23.3573C997.426 23.3573 1021.9 39.7847 1023.74 76.8299H979.154C977.478 65.7666 968.929 60.2349 950.49 60.2349C924.676 60.2349 920.318 71.1306 920.318 83.5349C920.318 96.1068 924.844 107.17 950.49 107.17C968.929 107.17 977.478 101.471 979.154 90.2399H1023.74C1021.9 127.453 997.593 144.048 950.49 144.048C898.862 144.048 876.735 124.435 876.735 83.5349ZM1108.14 40.1199C1119.87 40.1199 1128.08 41.7962 1134.79 43.4724V76.9975C1125.4 74.6507 1117.86 73.645 1110.48 73.645C1096.23 73.645 1080.64 75.3212 1069.08 88.0607V142.371H1028.85V41.7962H1069.08V58.5587C1077.96 45.3163 1091.71 40.1199 1108.14 40.1199ZM1203.24 112.199C1217.82 112.199 1223.69 111.193 1231.9 104.656H1271.29C1266.26 131.308 1244.64 144.048 1203.24 144.048C1163.84 144.048 1136.52 129.297 1136.52 92.0838C1136.52 54.8709 1163.84 40.1199 1204.91 40.1199C1246.32 40.1199 1272.97 54.8709 1272.97 98.7888H1177.59C1180.94 109.517 1192.17 112.199 1203.24 112.199ZM1204.75 68.6162C1194.02 68.6162 1183.96 69.622 1179.43 78.6737H1230.06C1225.53 69.622 1215.47 68.6162 1204.75 68.6162ZM1341.77 40.1199C1383.01 40.1199 1406.47 54.2004 1406.81 92.5866V142.371H1366.58V130.135C1350.99 141.533 1333.56 144.048 1316.12 144.048C1293.16 144.048 1273.04 135.834 1273.04 114.043C1273.04 87.8931 1303.22 81.0205 1332.55 81.0205C1346.63 81.0205 1357.36 82.8644 1366.58 86.2169C1366.58 74.1478 1353.84 73.645 1340.43 73.645C1327.52 73.645 1312.77 74.8183 1294.33 78.8414L1281.26 50.345C1301.37 43.8077 1323.16 40.1199 1341.77 40.1199ZM1366.58 109.517V105.326C1360.21 103.65 1351.49 102.812 1339.93 102.812C1321.32 102.812 1313.27 104.488 1313.27 110.858C1313.27 116.389 1317.97 117.228 1328.19 117.228C1341.77 117.228 1356.52 113.875 1366.58 109.517ZM1511.8 75.3212H1470.74V96.1068C1470.74 105.661 1474.42 110.523 1486.16 110.523C1495.21 110.523 1500.24 110.523 1511.8 108.846V141.533C1502.25 143.209 1490.35 144.048 1477.11 144.048C1445.93 144.048 1430.51 134.493 1430.51 112.702V75.3212H1410.22V41.7962H1430.51V25.0336L1470.74 14.9761V41.7962H1511.8V75.3212ZM1581.87 112.199C1596.45 112.199 1602.32 111.193 1610.53 104.656H1649.92C1644.89 131.308 1623.27 144.048 1581.87 144.048C1542.47 144.048 1515.15 129.297 1515.15 92.0838C1515.15 54.8709 1542.47 40.1199 1583.54 40.1199C1624.95 40.1199 1651.6 54.8709 1651.6 98.7888H1556.22C1559.57 109.517 1570.8 112.199 1581.87 112.199ZM1583.38 68.6162C1572.65 68.6162 1562.59 69.622 1558.06 78.6737H1608.69C1604.16 69.622 1594.1 68.6162 1583.38 68.6162Z" fill="#1A1A1A"/>
<path opacity="0.6" d="M0 68.5588C0 27.8258 22.1265 8.38127 73.7551 8.38127C120.69 8.38127 145.163 24.8086 147.007 61.8538H102.419C100.743 50.7905 92.1939 45.2589 73.7551 45.2589C47.9408 45.2589 43.5826 56.1545 43.5826 68.5588C43.5826 81.1307 48.1085 92.194 73.7551 92.194C92.1939 92.194 100.743 86.4947 102.419 75.2638H147.007C145.163 112.477 120.858 129.072 73.7551 129.072C22.1265 129.072 0 109.459 0 68.5588ZM231.4 25.1438C243.134 25.1438 251.348 26.8201 258.053 28.4963V62.0214C248.666 59.6746 241.122 58.6689 233.747 58.6689C219.499 58.6689 203.91 60.3451 192.343 73.0847V127.395H152.113V26.8201H192.343V43.5826C201.228 30.3402 214.973 25.1438 231.4 25.1438ZM326.501 97.2227C341.085 97.2227 346.952 96.217 355.165 89.6796H394.557C389.528 116.332 367.905 129.072 326.501 129.072C287.109 129.072 259.786 114.321 259.786 77.1077C259.786 39.8949 287.109 25.1438 328.178 25.1438C369.581 25.1438 396.233 39.8949 396.233 83.8127H300.855C304.207 94.5407 315.438 97.2227 326.501 97.2227ZM328.01 53.6401C317.282 53.6401 307.224 54.6459 302.699 63.6977H353.321C348.795 54.6459 338.738 53.6401 328.01 53.6401ZM465.036 25.1438C506.272 25.1438 529.739 39.2244 530.074 77.6106V127.395H489.844V115.159C474.255 126.557 456.822 129.072 439.389 129.072C416.424 129.072 396.309 120.858 396.309 99.0666C396.309 72.917 426.482 66.0444 455.816 66.0444C469.897 66.0444 480.625 67.8883 489.844 71.2408C489.844 59.1718 477.105 58.6689 463.695 58.6689C450.788 58.6689 436.037 59.8423 417.598 63.8653L404.523 35.369C424.638 28.8316 446.429 25.1438 465.036 25.1438ZM489.844 94.5407V90.3501C483.475 88.6738 474.758 87.8357 463.192 87.8357C444.586 87.8357 436.54 89.512 436.54 95.8817C436.54 101.413 441.233 102.251 451.458 102.251C465.036 102.251 479.787 98.899 489.844 94.5407ZM635.068 60.3451H594V81.1307C594 90.6853 597.688 95.5465 609.421 95.5465C618.473 95.5465 623.502 95.5465 635.068 93.8702V126.557C625.513 128.233 613.612 129.072 600.37 129.072C569.191 129.072 553.77 119.517 553.77 97.7256V60.3451H533.487V26.8201H553.77V10.0575L594 0V26.8201H635.068V60.3451ZM705.132 97.2227C719.715 97.2227 725.582 96.217 733.795 89.6796H773.187C768.159 116.332 746.535 129.072 705.132 129.072C665.74 129.072 638.417 114.321 638.417 77.1077C638.417 39.8949 665.74 25.1438 706.808 25.1438C748.211 25.1438 774.864 39.8949 774.864 83.8127H679.485C682.837 94.5407 694.068 97.2227 705.132 97.2227ZM706.64 53.6401C695.912 53.6401 685.855 54.6459 681.329 63.6977H731.952C727.426 54.6459 717.368 53.6401 706.64 53.6401Z" fill="url(#paint0_linear_48_169)"/>
<defs>
<linearGradient id="paint0_linear_48_169" x1="0" y1="64.5358" x2="774.864" y2="64.5358" gradientUnits="userSpaceOnUse">
<stop stop-color="#1A1A1A"/>
<stop offset="1" stop-color="#808080" stop-opacity="0.1"/>
</linearGradient>
</defs>
</svg>
