<svg width="1440" height="136" viewBox="0 0 1440 136" fill="none" xmlns="http://www.w3.org/2000/svg">
<path opacity="0.6" d="M1034.68 75.2292C1034.68 34.4962 1056.81 15.0517 1108.44 15.0517C1155.37 15.0517 1179.85 31.479 1181.69 68.5242H1137.1C1135.42 57.4609 1126.88 51.9293 1108.44 51.9293C1082.62 51.9293 1078.26 62.8249 1078.26 75.2292C1078.26 87.8011 1082.79 98.8644 1108.44 98.8644C1126.88 98.8644 1135.42 93.1651 1137.1 81.9342H1181.69C1179.85 119.147 1155.54 135.742 1108.44 135.742C1056.81 135.742 1034.68 116.13 1034.68 75.2292ZM1266.08 31.8142C1277.82 31.8142 1286.03 33.4905 1292.73 35.1667V68.6918C1283.35 66.3451 1275.8 65.3393 1268.43 65.3393C1254.18 65.3393 1238.59 67.0156 1227.03 79.7551V134.066H1186.8V33.4905H1227.03V50.253C1235.91 37.0106 1249.66 31.8142 1266.08 31.8142ZM1361.18 103.893C1375.77 103.893 1381.63 102.887 1389.85 96.35H1429.24C1424.21 123.002 1402.59 135.742 1361.18 135.742C1321.79 135.742 1294.47 120.991 1294.47 83.7781C1294.47 46.5653 1321.79 31.8142 1362.86 31.8142C1404.26 31.8142 1430.92 46.5653 1430.92 90.4831H1335.54C1338.89 101.211 1350.12 103.893 1361.18 103.893ZM1362.69 60.3105C1351.96 60.3105 1341.91 61.3163 1337.38 70.3681H1388C1383.48 61.3163 1373.42 60.3105 1362.69 60.3105ZM1499.72 31.8142C1540.95 31.8142 1564.42 45.8948 1564.76 84.281V134.066H1524.53V121.829C1508.94 133.228 1491.5 135.742 1474.07 135.742C1451.11 135.742 1430.99 127.528 1430.99 105.737C1430.99 79.5875 1461.16 72.7148 1490.5 72.7148C1504.58 72.7148 1515.31 74.5587 1524.53 77.9112C1524.53 65.8422 1511.79 65.3393 1498.38 65.3393C1485.47 65.3393 1470.72 66.5127 1452.28 70.5357L1439.21 42.0394C1459.32 35.502 1481.11 31.8142 1499.72 31.8142ZM1524.53 101.211V97.0205C1518.16 95.3442 1509.44 94.5061 1497.87 94.5061C1479.27 94.5061 1471.22 96.1824 1471.22 102.552C1471.22 108.084 1475.92 108.922 1486.14 108.922C1499.72 108.922 1514.47 105.569 1524.53 101.211ZM1669.75 67.0156H1628.68V87.8011C1628.68 97.3557 1632.37 102.217 1644.1 102.217C1653.16 102.217 1658.18 102.217 1669.75 100.541V133.228C1660.2 134.904 1648.29 135.742 1635.05 135.742C1603.87 135.742 1588.45 126.187 1588.45 104.396V67.0156H1568.17V33.4905H1588.45V16.7279L1628.68 6.67041V33.4905H1669.75V67.0156ZM1739.81 103.893C1754.4 103.893 1760.26 102.887 1768.48 96.35H1807.87C1802.84 123.002 1781.22 135.742 1739.81 135.742C1700.42 135.742 1673.1 120.991 1673.1 83.7781C1673.1 46.5653 1700.42 31.8142 1741.49 31.8142C1782.89 31.8142 1809.55 46.5653 1809.55 90.4831H1714.17C1717.52 101.211 1728.75 103.893 1739.81 103.893ZM1741.32 60.3105C1730.59 60.3105 1720.54 61.3163 1716.01 70.3681H1766.63C1762.11 61.3163 1752.05 60.3105 1741.32 60.3105Z" fill="url(#paint0_linear_48_170)"/>
<path opacity="0.6" d="M206.357 69.3049C206.357 28.5719 228.483 9.12736 280.112 9.12736C327.047 9.12736 351.52 25.5547 353.364 62.5999H308.776C307.1 51.5366 298.551 46.005 280.112 46.005C254.298 46.005 249.94 56.9006 249.94 69.3049C249.94 81.8768 254.465 92.9401 280.112 92.9401C298.551 92.9401 307.1 87.2408 308.776 76.0099H353.364C351.52 113.223 327.215 129.818 280.112 129.818C228.483 129.818 206.357 110.205 206.357 69.3049ZM437.757 25.8899C449.491 25.8899 457.705 27.5662 464.41 29.2424V62.7675C455.023 60.4207 447.479 59.415 440.104 59.415C425.856 59.415 410.267 61.0912 398.7 73.8308V128.141H358.47V27.5662H398.7V44.3287C407.585 31.0863 421.33 25.8899 437.757 25.8899ZM532.858 97.9688C547.442 97.9688 553.309 96.9631 561.522 90.4257H600.914C595.885 117.078 574.262 129.818 532.858 129.818C493.466 129.818 466.143 115.067 466.143 77.8538C466.143 40.6409 493.466 25.8899 534.535 25.8899C575.938 25.8899 602.59 40.641 602.59 84.5588H507.212C510.564 95.2868 521.795 97.9688 532.858 97.9688ZM534.367 54.3862C523.639 54.3862 513.581 55.392 509.055 64.4438H559.678C555.152 55.392 545.095 54.3862 534.367 54.3862ZM671.393 25.8899C712.629 25.8899 736.096 39.9704 736.431 78.3566V128.141H696.201V115.905C680.612 127.303 663.179 129.818 645.746 129.818C622.781 129.818 602.666 121.604 602.666 99.8127C602.666 73.6631 632.839 66.7905 662.173 66.7905C676.254 66.7905 686.982 68.6344 696.201 71.9869C696.201 59.9179 683.462 59.415 670.052 59.415C657.145 59.415 642.394 60.5884 623.955 64.6114L610.88 36.1151C630.995 29.5777 652.786 25.8899 671.393 25.8899ZM696.201 95.2868V91.0962C689.832 89.4199 681.115 88.5818 669.549 88.5818C650.942 88.5818 642.896 90.258 642.896 96.6278C642.896 102.159 647.59 102.998 657.815 102.998C671.393 102.998 686.144 99.6451 696.201 95.2868ZM841.425 61.0912H800.357V81.8768C800.357 91.4314 804.045 96.2926 815.778 96.2926C824.83 96.2926 829.859 96.2926 841.425 94.6163V127.303C831.87 128.98 819.969 129.818 806.727 129.818C775.548 129.818 760.127 120.263 760.127 98.4717V61.0912H739.844V27.5662H760.127V10.8036L800.357 0.746094V27.5662H841.425V61.0912ZM911.488 97.9688C926.072 97.9688 931.939 96.9631 940.152 90.4257H979.544C974.516 117.078 952.892 129.818 911.488 129.818C872.097 129.818 844.774 115.067 844.774 77.8538C844.774 40.6409 872.096 25.8899 913.165 25.8899C954.568 25.8899 981.221 40.641 981.221 84.5588H885.842C889.194 95.2868 900.425 97.9688 911.488 97.9688ZM912.997 54.3862C902.269 54.3862 892.212 55.392 887.686 64.4438H938.308C933.783 55.392 923.725 54.3862 912.997 54.3862Z" fill="#1A1A1A"/>
<path opacity="0.6" d="M-614 69.8503C-614 29.1173 -591.873 9.67277 -540.245 9.67277C-493.31 9.67277 -468.837 26.1001 -466.993 63.1453H-511.581C-513.257 52.082 -521.806 46.5504 -540.245 46.5504C-566.059 46.5504 -570.417 57.446 -570.417 69.8503C-570.417 82.4222 -565.892 93.4855 -540.245 93.4855C-521.806 93.4855 -513.257 87.7862 -511.581 76.5553H-466.993C-468.837 113.768 -493.142 130.363 -540.245 130.363C-591.873 130.363 -614 110.751 -614 69.8503ZM-382.6 26.4353C-370.866 26.4353 -362.652 28.1116 -355.947 29.7878V63.3129C-365.334 60.9661 -372.878 59.9604 -380.253 59.9604C-394.501 59.9604 -410.09 61.6367 -421.657 74.3762V128.687H-461.887V28.1116H-421.657V44.8741C-412.772 31.6317 -399.027 26.4353 -382.6 26.4353ZM-287.499 98.5142C-272.915 98.5142 -267.048 97.5085 -258.835 90.9711H-219.443C-224.472 117.624 -246.095 130.363 -287.499 130.363C-326.891 130.363 -354.214 115.612 -354.214 78.3992C-354.214 41.1864 -326.891 26.4353 -285.822 26.4353C-244.419 26.4353 -217.767 41.1864 -217.767 85.1042H-313.145C-309.793 95.8322 -298.562 98.5142 -287.499 98.5142ZM-285.99 54.9316C-296.718 54.9316 -306.776 55.9374 -311.301 64.9892H-260.679C-265.205 55.9374 -275.262 54.9316 -285.99 54.9316ZM-148.964 26.4353C-107.728 26.4353 -84.2608 40.5159 -83.9256 78.9021V128.687H-124.156V116.45C-139.745 127.849 -157.178 130.363 -174.611 130.363C-197.576 130.363 -217.691 122.149 -217.691 100.358C-217.691 74.2085 -187.518 67.3359 -158.184 67.3359C-144.103 67.3359 -133.375 69.1798 -124.156 72.5323C-124.156 60.4633 -136.895 59.9604 -150.305 59.9604C-163.212 59.9604 -177.963 61.1338 -196.402 65.1568L-209.477 36.6605C-189.362 30.1231 -167.571 26.4353 -148.964 26.4353ZM-124.156 95.8322V91.6416C-130.525 89.9653 -139.242 89.1272 -150.808 89.1272C-169.414 89.1272 -177.46 90.8035 -177.46 97.1732C-177.46 102.705 -172.767 103.543 -162.542 103.543C-148.964 103.543 -134.213 100.19 -124.156 95.8322ZM21.0681 61.6367H-20.0001V82.4222C-20.0001 91.9768 -16.3124 96.838 -4.57859 96.838C4.47318 96.838 9.50196 96.838 21.0681 95.1617V127.849C11.5135 129.525 -0.387938 130.363 -13.6303 130.363C-44.8086 130.363 -60.2302 120.808 -60.2302 99.0171V61.6367H-80.5128V28.1116H-60.2302V11.349L-20.0001 1.2915V28.1116H21.0681V61.6367ZM91.1315 98.5142C105.715 98.5142 111.582 97.5085 119.795 90.9711H159.187C154.159 117.624 132.535 130.363 91.1315 130.363C51.7396 130.363 24.4167 115.612 24.4167 78.3992C24.4167 41.1864 51.7395 26.4353 92.8077 26.4353C134.211 26.4353 160.864 41.1864 160.864 85.1042H65.4849C68.8374 95.8322 80.0683 98.5142 91.1315 98.5142ZM92.6401 54.9316C81.9121 54.9316 71.8546 55.9374 67.3287 64.9892H117.952C113.426 55.9374 103.368 54.9316 92.6401 54.9316Z" fill="#1A1A1A"/>
<defs>
<linearGradient id="paint0_linear_48_170" x1="1034.68" y1="71.2062" x2="1809.55" y2="71.2062" gradientUnits="userSpaceOnUse">
<stop stop-color="#1A1A1A"/>
<stop offset="1" stop-color="#808080" stop-opacity="0.1"/>
</linearGradient>
</defs>
</svg>
