<svg width="814" height="58" viewBox="0 0 814 58" fill="none" xmlns="http://www.w3.org/2000/svg">
<path d="M40.7752 13.922H10.5352V21.59H40.7752V28.61H10.5352V36.278H40.7752V44H0.815164V6.2H40.7752V13.922ZM100.089 11.654C107.217 11.654 113.697 14.678 113.805 26.18L113.697 44H104.463V29.906C104.463 23.156 103.329 19.646 96.7411 19.646C91.8811 19.646 87.1291 21.968 84.3211 24.506C84.3751 25.046 84.3751 25.586 84.3751 26.18L84.2671 44H75.0331V29.906C75.0331 23.156 73.8991 19.646 67.3111 19.646C61.9651 19.646 56.7811 22.4 54.1351 25.262V44H44.9011V12.194H54.1351V17.378C57.5911 14.624 62.7751 11.654 70.6591 11.654C75.4651 11.654 80.0011 13.058 82.4311 17.486C86.5351 14.408 92.2051 11.654 100.089 11.654ZM143.259 11.654C153.519 11.654 162.213 15.974 162.213 28.124C162.213 40.274 153.519 44.54 143.259 44.54C136.401 44.54 130.893 42.704 127.437 39.086V57.5H118.149V12.194H127.437V17.108C130.893 13.544 136.401 11.654 143.259 11.654ZM140.181 36.818C148.443 36.818 152.979 34.388 152.979 28.124C152.979 21.806 148.443 19.376 140.181 19.376C131.919 19.376 127.437 21.806 127.437 28.124C127.437 34.388 131.919 36.818 140.181 36.818ZM165.979 0.799999H175.213V44H165.979V0.799999ZM200.76 44.54C187.584 44.54 178.728 39.788 178.728 28.124C178.728 16.406 187.584 11.654 200.76 11.654C213.882 11.654 222.792 16.406 222.792 28.124C222.792 39.788 213.882 44.54 200.76 44.54ZM200.76 36.818C209.292 36.818 213.504 34.712 213.504 28.124C213.504 21.482 209.292 19.376 200.76 19.376C192.174 19.376 187.962 21.482 187.962 28.124C187.962 34.712 192.174 36.818 200.76 36.818ZM257.098 12.194H267.304L245.812 57.5H235.606L242.032 44H237.28L220.81 12.194H231.07L244.678 38.438L257.098 12.194ZM287.127 37.034C293.499 37.034 297.387 35.846 299.709 32.606H308.889C306.783 40.706 298.899 44.54 287.127 44.54C275.031 44.54 265.635 39.788 265.635 28.124C265.635 16.406 274.761 11.654 287.667 11.654C299.763 11.654 309.429 15.812 309.429 30.284H275.085C276.111 35.36 280.971 37.034 287.127 37.034ZM287.613 18.674C281.295 18.674 276.867 19.916 275.409 24.398H299.547C297.981 19.916 293.445 18.674 287.613 18.674ZM333.586 37.034C339.958 37.034 343.846 35.846 346.168 32.606H355.348C353.242 40.706 345.358 44.54 333.586 44.54C321.49 44.54 312.094 39.788 312.094 28.124C312.094 16.406 321.22 11.654 334.126 11.654C346.222 11.654 355.888 15.812 355.888 30.284H321.544C322.57 35.36 327.43 37.034 333.586 37.034ZM334.072 18.674C327.754 18.674 323.326 19.916 321.868 24.398H346.006C344.44 19.916 339.904 18.674 334.072 18.674ZM407.889 44.54C391.257 44.54 384.129 37.628 384.129 25.046C384.129 12.518 391.257 5.66 407.889 5.66C424.467 5.66 431.649 12.572 431.649 25.046C431.649 37.574 424.467 44.54 407.889 44.54ZM407.889 36.386C417.987 36.386 421.929 32.768 421.929 25.046C421.929 17.378 418.041 13.814 407.889 13.814C397.737 13.814 393.849 17.324 393.849 25.046C393.849 32.822 397.791 36.386 407.889 36.386ZM463.208 11.654C471.686 11.654 479.624 14.678 479.732 26.396L479.624 44H470.336V29.906C470.336 23.156 468.068 19.646 460.454 19.646C454.244 19.646 447.548 22.832 444.686 26.18V44H435.452V12.194H444.686V17.756C449.222 14.192 455.486 11.654 463.208 11.654ZM509.13 11.654C519.336 11.654 528.084 15.974 528.084 28.124C528.084 40.274 519.336 44.54 509.13 44.54C502.272 44.54 496.71 42.65 493.254 39.032V44H484.02V0.799999H493.254V17.162C496.71 13.544 502.272 11.654 509.13 11.654ZM506.052 36.818C514.314 36.818 518.796 34.388 518.796 28.124C518.796 21.806 514.314 19.376 506.052 19.376C497.79 19.376 493.254 21.806 493.254 28.124C493.254 34.388 497.79 36.818 506.052 36.818ZM552.762 44.54C539.586 44.54 530.73 39.788 530.73 28.124C530.73 16.406 539.586 11.654 552.762 11.654C565.884 11.654 574.794 16.406 574.794 28.124C574.794 39.788 565.884 44.54 552.762 44.54ZM552.762 36.818C561.294 36.818 565.506 34.712 565.506 28.124C565.506 21.482 561.294 19.376 552.762 19.376C544.176 19.376 539.964 21.482 539.964 28.124C539.964 34.712 544.176 36.818 552.762 36.818ZM599.066 11.654C612.35 11.654 619.91 15.92 620.018 27.962V44H610.73V40.058C605.114 42.812 598.904 44.54 591.398 44.54C582.488 44.54 576.926 41.678 576.926 34.496C576.926 26.234 585.998 23.642 596.096 23.642C601.55 23.642 606.572 24.506 610.73 25.91C610.73 19.862 602.954 19.376 598.634 19.376C594.476 19.376 589.4 19.754 582.866 21.698L579.572 14.948C586.052 12.842 592.424 11.654 599.066 11.654ZM610.73 34.118V31.634C607.49 30.608 603.116 29.69 597.23 29.69C590.318 29.69 586.16 30.878 586.16 34.118C586.16 37.466 589.238 37.736 594.044 37.736C599.066 37.736 605.978 36.17 610.73 34.118ZM649.677 11.654C653.457 11.654 656.103 12.194 658.263 12.734V20.456C655.239 19.7 652.809 19.376 650.109 19.376C644.925 19.376 638.985 20.564 633.369 24.938V44H624.135V12.194H633.369V17.594C638.121 13.328 643.737 11.654 649.677 11.654ZM693.968 0.799999H703.202V44H693.968V39.032C690.512 42.65 684.95 44.54 678.092 44.54C667.886 44.54 659.138 40.274 659.138 28.124C659.138 15.974 667.886 11.654 678.092 11.654C684.95 11.654 690.512 13.544 693.968 17.162V0.799999ZM681.17 36.818C689.432 36.818 693.968 34.388 693.968 28.124C693.968 21.806 689.432 19.376 681.17 19.376C672.908 19.376 668.426 21.806 668.426 28.124C668.426 34.388 672.908 36.818 681.17 36.818ZM707.509 0.799999H716.743V8.846H707.509V0.799999ZM707.509 12.194H716.743V44H707.509V12.194ZM749.134 11.654C757.612 11.654 765.55 14.678 765.658 26.396L765.55 44H756.262V29.906C756.262 23.156 753.994 19.646 746.38 19.646C740.17 19.646 733.474 22.832 730.612 26.18V44H721.378V12.194H730.612V17.756C735.148 14.192 741.412 11.654 749.134 11.654ZM803.918 12.194H813.206V38.924C813.206 51.884 804.512 57.5 792.47 57.5C783.236 57.5 775.622 55.772 772.544 54.962V47.51C776.27 48.212 783.398 49.778 790.418 49.778C799.976 49.778 803.54 46.106 803.918 37.952C800.678 41.516 795.332 43.622 787.826 43.622C776.918 43.622 769.142 38.87 769.142 27.638C769.142 16.406 776.918 11.654 787.826 11.654C795.386 11.654 800.732 13.76 803.918 17.324V12.194ZM791.174 35.9C799.868 35.9 803.918 33.47 803.918 27.638C803.918 21.806 799.868 19.376 791.174 19.376C782.48 19.376 778.376 21.806 778.376 27.638C778.376 33.47 782.48 35.9 791.174 35.9Z" fill="url(#paint0_linear_1_58)"/>
<defs>
<linearGradient id="paint0_linear_1_58" x1="407" y1="-4" x2="407" y2="60" gradientUnits="userSpaceOnUse">
<stop stop-color="white"/>
<stop offset="1" stop-color="#5E5E5E"/>
</linearGradient>
</defs>
</svg>
