<svg width="361" height="17" viewBox="0 0 361 17" fill="none" xmlns="http://www.w3.org/2000/svg">
<path d="M9.71742 6.14C9.71742 7.3 9.31742 8.26667 8.51742 9.04C7.73076 9.8 6.52409 10.18 4.89742 10.18H2.21742V16H0.397422V2.06H4.89742C6.47076 2.06 7.66409 2.44 8.47742 3.2C9.30409 3.96 9.71742 4.94 9.71742 6.14ZM4.89742 8.68C5.91076 8.68 6.65742 8.46 7.13742 8.02C7.61742 7.58 7.85742 6.95333 7.85742 6.14C7.85742 4.42 6.87076 3.56 4.89742 3.56H2.21742V8.68H4.89742ZM13.7995 1.2V16H11.9795V1.2H13.7995ZM26.9013 10.1C26.9013 10.4467 26.8813 10.8133 26.8413 11.2H18.0813C18.148 12.28 18.5147 13.1267 19.1813 13.74C19.8613 14.34 20.6813 14.64 21.6413 14.64C22.428 14.64 23.0813 14.46 23.6013 14.1C24.1347 13.7267 24.508 13.2333 24.7213 12.62H26.6813C26.388 13.6733 25.8013 14.5333 24.9213 15.2C24.0413 15.8533 22.948 16.18 21.6413 16.18C20.6013 16.18 19.668 15.9467 18.8413 15.48C18.028 15.0133 17.388 14.3533 16.9213 13.5C16.4547 12.6333 16.2213 11.6333 16.2213 10.5C16.2213 9.36667 16.448 8.37333 16.9013 7.52C17.3547 6.66667 17.988 6.01333 18.8013 5.56C19.628 5.09333 20.5747 4.86 21.6413 4.86C22.6813 4.86 23.6013 5.08667 24.4013 5.54C25.2013 5.99333 25.8147 6.62 26.2413 7.42C26.6813 8.20667 26.9013 9.1 26.9013 10.1ZM25.0213 9.72C25.0213 9.02667 24.868 8.43333 24.5613 7.94C24.2547 7.43333 23.8347 7.05333 23.3013 6.8C22.7813 6.53333 22.2013 6.4 21.5613 6.4C20.6413 6.4 19.8547 6.69333 19.2013 7.28C18.5613 7.86667 18.1947 8.68 18.1013 9.72H25.0213ZM28.6237 10.48C28.6237 9.36 28.8503 8.38 29.3037 7.54C29.757 6.68667 30.377 6.02667 31.1637 5.56C31.9637 5.09333 32.8503 4.86 33.8237 4.86C34.7837 4.86 35.617 5.06667 36.3237 5.48C37.0303 5.89333 37.557 6.41333 37.9037 7.04V5.04H39.7437V16H37.9037V13.96C37.5437 14.6 37.0037 15.1333 36.2837 15.56C35.577 15.9733 34.7503 16.18 33.8037 16.18C32.8303 16.18 31.9503 15.94 31.1637 15.46C30.377 14.98 29.757 14.3067 29.3037 13.44C28.8503 12.5733 28.6237 11.5867 28.6237 10.48ZM37.9037 10.5C37.9037 9.67333 37.737 8.95333 37.4037 8.34C37.0703 7.72667 36.617 7.26 36.0437 6.94C35.4837 6.60667 34.8637 6.44 34.1837 6.44C33.5037 6.44 32.8837 6.6 32.3237 6.92C31.7637 7.24 31.317 7.70667 30.9837 8.32C30.6503 8.93333 30.4837 9.65333 30.4837 10.48C30.4837 11.32 30.6503 12.0533 30.9837 12.68C31.317 13.2933 31.7637 13.7667 32.3237 14.1C32.8837 14.42 33.5037 14.58 34.1837 14.58C34.8637 14.58 35.4837 14.42 36.0437 14.1C36.617 13.7667 37.0703 13.2933 37.4037 12.68C37.737 12.0533 37.9037 11.3267 37.9037 10.5ZM46.6993 16.18C45.8593 16.18 45.106 16.04 44.4393 15.76C43.7726 15.4667 43.246 15.0667 42.8593 14.56C42.4726 14.04 42.2593 13.4467 42.2193 12.78H44.0993C44.1526 13.3267 44.406 13.7733 44.8593 14.12C45.326 14.4667 45.9326 14.64 46.6793 14.64C47.3726 14.64 47.9193 14.4867 48.3193 14.18C48.7193 13.8733 48.9193 13.4867 48.9193 13.02C48.9193 12.54 48.706 12.1867 48.2793 11.96C47.8526 11.72 47.1926 11.4867 46.2993 11.26C45.486 11.0467 44.8193 10.8333 44.2993 10.62C43.7926 10.3933 43.3526 10.0667 42.9793 9.64C42.6193 9.2 42.4393 8.62667 42.4393 7.92C42.4393 7.36 42.606 6.84667 42.9393 6.38C43.2726 5.91333 43.746 5.54667 44.3593 5.28C44.9726 5 45.6726 4.86 46.4593 4.86C47.6726 4.86 48.6526 5.16667 49.3993 5.78C50.146 6.39333 50.546 7.23333 50.5993 8.3H48.7793C48.7393 7.72667 48.506 7.26667 48.0793 6.92C47.666 6.57333 47.106 6.4 46.3993 6.4C45.746 6.4 45.226 6.54 44.8393 6.82C44.4526 7.1 44.2593 7.46667 44.2593 7.92C44.2593 8.28 44.3726 8.58 44.5993 8.82C44.8393 9.04667 45.1326 9.23333 45.4793 9.38C45.8393 9.51333 46.3326 9.66667 46.9593 9.84C47.746 10.0533 48.386 10.2667 48.8793 10.48C49.3726 10.68 49.7926 10.9867 50.1393 11.4C50.4993 11.8133 50.686 12.3533 50.6993 13.02C50.6993 13.62 50.5326 14.16 50.1993 14.64C49.866 15.12 49.3926 15.5 48.7793 15.78C48.1793 16.0467 47.486 16.18 46.6993 16.18ZM63.2685 10.1C63.2685 10.4467 63.2485 10.8133 63.2085 11.2H54.4485C54.5152 12.28 54.8818 13.1267 55.5485 13.74C56.2285 14.34 57.0485 14.64 58.0085 14.64C58.7952 14.64 59.4485 14.46 59.9685 14.1C60.5018 13.7267 60.8752 13.2333 61.0885 12.62H63.0485C62.7552 13.6733 62.1685 14.5333 61.2885 15.2C60.4085 15.8533 59.3152 16.18 58.0085 16.18C56.9685 16.18 56.0352 15.9467 55.2085 15.48C54.3952 15.0133 53.7552 14.3533 53.2885 13.5C52.8218 12.6333 52.5885 11.6333 52.5885 10.5C52.5885 9.36667 52.8152 8.37333 53.2685 7.52C53.7218 6.66667 54.3552 6.01333 55.1685 5.56C55.9952 5.09333 56.9418 4.86 58.0085 4.86C59.0485 4.86 59.9685 5.08667 60.7685 5.54C61.5685 5.99333 62.1818 6.62 62.6085 7.42C63.0485 8.20667 63.2685 9.1 63.2685 10.1ZM61.3885 9.72C61.3885 9.02667 61.2352 8.43333 60.9285 7.94C60.6218 7.43333 60.2018 7.05333 59.6685 6.8C59.1485 6.53333 58.5685 6.4 57.9285 6.4C57.0085 6.4 56.2218 6.69333 55.5685 7.28C54.9285 7.86667 54.5618 8.68 54.4685 9.72H61.3885ZM75.4629 6.54H73.1629V16H71.3429V6.54H69.9229V5.04H71.3429V4.26C71.3429 3.03333 71.6562 2.14 72.2829 1.58C72.9229 1.00667 73.9429 0.719999 75.3429 0.719999V2.24C74.5429 2.24 73.9762 2.4 73.6429 2.72C73.3229 3.02667 73.1629 3.54 73.1629 4.26V5.04H75.4629V6.54ZM78.5249 3.26C78.1783 3.26 77.8849 3.14 77.6449 2.9C77.4049 2.66 77.2849 2.36667 77.2849 2.02C77.2849 1.67333 77.4049 1.38 77.6449 1.14C77.8849 0.899999 78.1783 0.779999 78.5249 0.779999C78.8583 0.779999 79.1383 0.899999 79.3649 1.14C79.6049 1.38 79.7249 1.67333 79.7249 2.02C79.7249 2.36667 79.6049 2.66 79.3649 2.9C79.1383 3.14 78.8583 3.26 78.5249 3.26ZM79.4049 5.04V16H77.5849V5.04H79.4049ZM84.3268 1.2V16H82.5068V1.2H84.3268ZM89.2487 1.2V16H87.4287V1.2H89.2487ZM99.9026 6.54V13C99.9026 13.5333 100.016 13.9133 100.243 14.14C100.469 14.3533 100.863 14.46 101.423 14.46H102.763V16H101.123C100.109 16 99.3492 15.7667 98.8426 15.3C98.3359 14.8333 98.0826 14.0667 98.0826 13V6.54H96.6626V5.04H98.0826V2.28H99.9026V5.04H102.763V6.54H99.9026ZM110.408 4.84C111.234 4.84 111.981 5.02 112.648 5.38C113.314 5.72667 113.834 6.25333 114.208 6.96C114.594 7.66667 114.788 8.52667 114.788 9.54V16H112.988V9.8C112.988 8.70667 112.714 7.87333 112.168 7.3C111.621 6.71333 110.874 6.42 109.928 6.42C108.968 6.42 108.201 6.72 107.628 7.32C107.068 7.92 106.788 8.79333 106.788 9.94V16H104.968V1.2H106.788V6.6C107.148 6.04 107.641 5.60667 108.268 5.3C108.908 4.99333 109.621 4.84 110.408 4.84ZM127.761 10.1C127.761 10.4467 127.741 10.8133 127.701 11.2H118.941C119.007 12.28 119.374 13.1267 120.041 13.74C120.721 14.34 121.541 14.64 122.501 14.64C123.287 14.64 123.941 14.46 124.461 14.1C124.994 13.7267 125.367 13.2333 125.581 12.62H127.541C127.247 13.6733 126.661 14.5333 125.781 15.2C124.901 15.8533 123.807 16.18 122.501 16.18C121.461 16.18 120.527 15.9467 119.701 15.48C118.887 15.0133 118.247 14.3533 117.781 13.5C117.314 12.6333 117.081 11.6333 117.081 10.5C117.081 9.36667 117.307 8.37333 117.761 7.52C118.214 6.66667 118.847 6.01333 119.661 5.56C120.487 5.09333 121.434 4.86 122.501 4.86C123.541 4.86 124.461 5.08667 125.261 5.54C126.061 5.99333 126.674 6.62 127.101 7.42C127.541 8.20667 127.761 9.1 127.761 10.1ZM125.881 9.72C125.881 9.02667 125.727 8.43333 125.421 7.94C125.114 7.43333 124.694 7.05333 124.161 6.8C123.641 6.53333 123.061 6.4 122.421 6.4C121.501 6.4 120.714 6.69333 120.061 7.28C119.421 7.86667 119.054 8.68 118.961 9.72H125.881ZM134.815 10.48C134.815 9.36 135.042 8.38 135.495 7.54C135.948 6.68667 136.568 6.02667 137.355 5.56C138.155 5.09333 139.048 4.86 140.035 4.86C140.888 4.86 141.682 5.06 142.415 5.46C143.148 5.84667 143.708 6.36 144.095 7V1.2H145.935V16H144.095V13.94C143.735 14.5933 143.202 15.1333 142.495 15.56C141.788 15.9733 140.962 16.18 140.015 16.18C139.042 16.18 138.155 15.94 137.355 15.46C136.568 14.98 135.948 14.3067 135.495 13.44C135.042 12.5733 134.815 11.5867 134.815 10.48ZM144.095 10.5C144.095 9.67333 143.928 8.95333 143.595 8.34C143.262 7.72667 142.808 7.26 142.235 6.94C141.675 6.60667 141.055 6.44 140.375 6.44C139.695 6.44 139.075 6.6 138.515 6.92C137.955 7.24 137.508 7.70667 137.175 8.32C136.842 8.93333 136.675 9.65333 136.675 10.48C136.675 11.32 136.842 12.0533 137.175 12.68C137.508 13.2933 137.955 13.7667 138.515 14.1C139.075 14.42 139.695 14.58 140.375 14.58C141.055 14.58 141.675 14.42 142.235 14.1C142.808 13.7667 143.262 13.2933 143.595 12.68C143.928 12.0533 144.095 11.3267 144.095 10.5ZM159.011 10.1C159.011 10.4467 158.991 10.8133 158.951 11.2H150.191C150.257 12.28 150.624 13.1267 151.291 13.74C151.971 14.34 152.791 14.64 153.751 14.64C154.537 14.64 155.191 14.46 155.711 14.1C156.244 13.7267 156.617 13.2333 156.831 12.62H158.791C158.497 13.6733 157.911 14.5333 157.031 15.2C156.151 15.8533 155.057 16.18 153.751 16.18C152.711 16.18 151.777 15.9467 150.951 15.48C150.137 15.0133 149.497 14.3533 149.031 13.5C148.564 12.6333 148.331 11.6333 148.331 10.5C148.331 9.36667 148.557 8.37333 149.011 7.52C149.464 6.66667 150.097 6.01333 150.911 5.56C151.737 5.09333 152.684 4.86 153.751 4.86C154.791 4.86 155.711 5.08667 156.511 5.54C157.311 5.99333 157.924 6.62 158.351 7.42C158.791 8.20667 159.011 9.1 159.011 10.1ZM157.131 9.72C157.131 9.02667 156.977 8.43333 156.671 7.94C156.364 7.43333 155.944 7.05333 155.411 6.8C154.891 6.53333 154.311 6.4 153.671 6.4C152.751 6.4 151.964 6.69333 151.311 7.28C150.671 7.86667 150.304 8.68 150.211 9.72H157.131ZM163.633 6.54V13C163.633 13.5333 163.746 13.9133 163.973 14.14C164.2 14.3533 164.593 14.46 165.153 14.46H166.493V16H164.853C163.84 16 163.08 15.7667 162.573 15.3C162.066 14.8333 161.813 14.0667 161.813 13V6.54H160.393V5.04H161.813V2.28H163.633V5.04H166.493V6.54H163.633ZM168.018 10.48C168.018 9.36 168.245 8.38 168.698 7.54C169.152 6.68667 169.772 6.02667 170.558 5.56C171.358 5.09333 172.245 4.86 173.218 4.86C174.178 4.86 175.012 5.06667 175.718 5.48C176.425 5.89333 176.952 6.41333 177.298 7.04V5.04H179.138V16H177.298V13.96C176.938 14.6 176.398 15.1333 175.678 15.56C174.972 15.9733 174.145 16.18 173.198 16.18C172.225 16.18 171.345 15.94 170.558 15.46C169.772 14.98 169.152 14.3067 168.698 13.44C168.245 12.5733 168.018 11.5867 168.018 10.48ZM177.298 10.5C177.298 9.67333 177.132 8.95333 176.798 8.34C176.465 7.72667 176.012 7.26 175.438 6.94C174.878 6.60667 174.258 6.44 173.578 6.44C172.898 6.44 172.278 6.6 171.718 6.92C171.158 7.24 170.712 7.70667 170.378 8.32C170.045 8.93333 169.878 9.65333 169.878 10.48C169.878 11.32 170.045 12.0533 170.378 12.68C170.712 13.2933 171.158 13.7667 171.718 14.1C172.278 14.42 172.898 14.58 173.578 14.58C174.258 14.58 174.878 14.42 175.438 14.1C176.012 13.7667 176.465 13.2933 176.798 12.68C177.132 12.0533 177.298 11.3267 177.298 10.5ZM183.154 3.26C182.807 3.26 182.514 3.14 182.274 2.9C182.034 2.66 181.914 2.36667 181.914 2.02C181.914 1.67333 182.034 1.38 182.274 1.14C182.514 0.899999 182.807 0.779999 183.154 0.779999C183.487 0.779999 183.767 0.899999 183.994 1.14C184.234 1.38 184.354 1.67333 184.354 2.02C184.354 2.36667 184.234 2.66 183.994 2.9C183.767 3.14 183.487 3.26 183.154 3.26ZM184.034 5.04V16H182.214V5.04H184.034ZM188.956 1.2V16H187.136V1.2H188.956ZM195.938 16.18C195.098 16.18 194.344 16.04 193.678 15.76C193.011 15.4667 192.484 15.0667 192.098 14.56C191.711 14.04 191.498 13.4467 191.458 12.78H193.338C193.391 13.3267 193.644 13.7733 194.098 14.12C194.564 14.4667 195.171 14.64 195.918 14.64C196.611 14.64 197.158 14.4867 197.558 14.18C197.958 13.8733 198.158 13.4867 198.158 13.02C198.158 12.54 197.944 12.1867 197.518 11.96C197.091 11.72 196.431 11.4867 195.538 11.26C194.724 11.0467 194.058 10.8333 193.538 10.62C193.031 10.3933 192.591 10.0667 192.218 9.64C191.858 9.2 191.678 8.62667 191.678 7.92C191.678 7.36 191.844 6.84667 192.178 6.38C192.511 5.91333 192.984 5.54667 193.598 5.28C194.211 5 194.911 4.86 195.698 4.86C196.911 4.86 197.891 5.16667 198.638 5.78C199.384 6.39333 199.784 7.23333 199.838 8.3H198.018C197.978 7.72667 197.744 7.26667 197.318 6.92C196.904 6.57333 196.344 6.4 195.638 6.4C194.984 6.4 194.464 6.54 194.078 6.82C193.691 7.1 193.498 7.46667 193.498 7.92C193.498 8.28 193.611 8.58 193.838 8.82C194.078 9.04667 194.371 9.23333 194.718 9.38C195.078 9.51333 195.571 9.66667 196.198 9.84C196.984 10.0533 197.624 10.2667 198.118 10.48C198.611 10.68 199.031 10.9867 199.378 11.4C199.738 11.8133 199.924 12.3533 199.938 13.02C199.938 13.62 199.771 14.16 199.438 14.64C199.104 15.12 198.631 15.5 198.018 15.78C197.418 16.0467 196.724 16.18 195.938 16.18ZM207.159 10.48C207.159 9.36 207.385 8.38 207.839 7.54C208.292 6.68667 208.912 6.02667 209.699 5.56C210.499 5.09333 211.385 4.86 212.359 4.86C213.319 4.86 214.152 5.06667 214.859 5.48C215.565 5.89333 216.092 6.41333 216.439 7.04V5.04H218.279V16H216.439V13.96C216.079 14.6 215.539 15.1333 214.819 15.56C214.112 15.9733 213.285 16.18 212.339 16.18C211.365 16.18 210.485 15.94 209.699 15.46C208.912 14.98 208.292 14.3067 207.839 13.44C207.385 12.5733 207.159 11.5867 207.159 10.48ZM216.439 10.5C216.439 9.67333 216.272 8.95333 215.939 8.34C215.605 7.72667 215.152 7.26 214.579 6.94C214.019 6.60667 213.399 6.44 212.719 6.44C212.039 6.44 211.419 6.6 210.859 6.92C210.299 7.24 209.852 7.70667 209.519 8.32C209.185 8.93333 209.019 9.65333 209.019 10.48C209.019 11.32 209.185 12.0533 209.519 12.68C209.852 13.2933 210.299 13.7667 210.859 14.1C211.419 14.42 212.039 14.58 212.719 14.58C213.399 14.58 214.019 14.42 214.579 14.1C215.152 13.7667 215.605 13.2933 215.939 12.68C216.272 12.0533 216.439 11.3267 216.439 10.5ZM225.234 16.18C224.394 16.18 223.641 16.04 222.974 15.76C222.308 15.4667 221.781 15.0667 221.394 14.56C221.008 14.04 220.794 13.4467 220.754 12.78H222.634C222.688 13.3267 222.941 13.7733 223.394 14.12C223.861 14.4667 224.468 14.64 225.214 14.64C225.908 14.64 226.454 14.4867 226.854 14.18C227.254 13.8733 227.454 13.4867 227.454 13.02C227.454 12.54 227.241 12.1867 226.814 11.96C226.388 11.72 225.728 11.4867 224.834 11.26C224.021 11.0467 223.354 10.8333 222.834 10.62C222.328 10.3933 221.888 10.0667 221.514 9.64C221.154 9.2 220.974 8.62667 220.974 7.92C220.974 7.36 221.141 6.84667 221.474 6.38C221.808 5.91333 222.281 5.54667 222.894 5.28C223.508 5 224.208 4.86 224.994 4.86C226.208 4.86 227.188 5.16667 227.934 5.78C228.681 6.39333 229.081 7.23333 229.134 8.3H227.314C227.274 7.72667 227.041 7.26667 226.614 6.92C226.201 6.57333 225.641 6.4 224.934 6.4C224.281 6.4 223.761 6.54 223.374 6.82C222.988 7.1 222.794 7.46667 222.794 7.92C222.794 8.28 222.908 8.58 223.134 8.82C223.374 9.04667 223.668 9.23333 224.014 9.38C224.374 9.51333 224.868 9.66667 225.494 9.84C226.281 10.0533 226.921 10.2667 227.414 10.48C227.908 10.68 228.328 10.9867 228.674 11.4C229.034 11.8133 229.221 12.3533 229.234 13.02C229.234 13.62 229.068 14.16 228.734 14.64C228.401 15.12 227.928 15.5 227.314 15.78C226.714 16.0467 226.021 16.18 225.234 16.18ZM236.456 10.48C236.456 9.36 236.682 8.38 237.136 7.54C237.589 6.68667 238.209 6.02667 238.996 5.56C239.796 5.09333 240.682 4.86 241.656 4.86C242.616 4.86 243.449 5.06667 244.156 5.48C244.862 5.89333 245.389 6.41333 245.736 7.04V5.04H247.576V16H245.736V13.96C245.376 14.6 244.836 15.1333 244.116 15.56C243.409 15.9733 242.582 16.18 241.636 16.18C240.662 16.18 239.782 15.94 238.996 15.46C238.209 14.98 237.589 14.3067 237.136 13.44C236.682 12.5733 236.456 11.5867 236.456 10.48ZM245.736 10.5C245.736 9.67333 245.569 8.95333 245.236 8.34C244.902 7.72667 244.449 7.26 243.876 6.94C243.316 6.60667 242.696 6.44 242.016 6.44C241.336 6.44 240.716 6.6 240.156 6.92C239.596 7.24 239.149 7.70667 238.816 8.32C238.482 8.93333 238.316 9.65333 238.316 10.48C238.316 11.32 238.482 12.0533 238.816 12.68C239.149 13.2933 239.596 13.7667 240.156 14.1C240.716 14.42 241.336 14.58 242.016 14.58C242.696 14.58 243.316 14.42 243.876 14.1C244.449 13.7667 244.902 13.2933 245.236 12.68C245.569 12.0533 245.736 11.3267 245.736 10.5ZM254.531 16.18C253.691 16.18 252.938 16.04 252.271 15.76C251.605 15.4667 251.078 15.0667 250.691 14.56C250.305 14.04 250.091 13.4467 250.051 12.78H251.931C251.985 13.3267 252.238 13.7733 252.691 14.12C253.158 14.4667 253.765 14.64 254.511 14.64C255.205 14.64 255.751 14.4867 256.151 14.18C256.551 13.8733 256.751 13.4867 256.751 13.02C256.751 12.54 256.538 12.1867 256.111 11.96C255.685 11.72 255.025 11.4867 254.131 11.26C253.318 11.0467 252.651 10.8333 252.131 10.62C251.625 10.3933 251.185 10.0667 250.811 9.64C250.451 9.2 250.271 8.62667 250.271 7.92C250.271 7.36 250.438 6.84667 250.771 6.38C251.105 5.91333 251.578 5.54667 252.191 5.28C252.805 5 253.505 4.86 254.291 4.86C255.505 4.86 256.485 5.16667 257.231 5.78C257.978 6.39333 258.378 7.23333 258.431 8.3H256.611C256.571 7.72667 256.338 7.26667 255.911 6.92C255.498 6.57333 254.938 6.4 254.231 6.4C253.578 6.4 253.058 6.54 252.671 6.82C252.285 7.1 252.091 7.46667 252.091 7.92C252.091 8.28 252.205 8.58 252.431 8.82C252.671 9.04667 252.965 9.23333 253.311 9.38C253.671 9.51333 254.165 9.66667 254.791 9.84C255.578 10.0533 256.218 10.2667 256.711 10.48C257.205 10.68 257.625 10.9867 257.971 11.4C258.331 11.8133 258.518 12.3533 258.531 13.02C258.531 13.62 258.365 14.16 258.031 14.64C257.698 15.12 257.225 15.5 256.611 15.78C256.011 16.0467 255.318 16.18 254.531 16.18ZM267.221 16L262.921 11.16V16H261.101V1.2H262.921V9.9L267.141 5.04H269.681L264.521 10.5L269.701 16H267.221ZM281.394 10.1C281.394 10.4467 281.374 10.8133 281.334 11.2H272.574C272.64 12.28 273.007 13.1267 273.674 13.74C274.354 14.34 275.174 14.64 276.134 14.64C276.92 14.64 277.574 14.46 278.094 14.1C278.627 13.7267 279 13.2333 279.214 12.62H281.174C280.88 13.6733 280.294 14.5333 279.414 15.2C278.534 15.8533 277.44 16.18 276.134 16.18C275.094 16.18 274.16 15.9467 273.334 15.48C272.52 15.0133 271.88 14.3533 271.414 13.5C270.947 12.6333 270.714 11.6333 270.714 10.5C270.714 9.36667 270.94 8.37333 271.394 7.52C271.847 6.66667 272.48 6.01333 273.294 5.56C274.12 5.09333 275.067 4.86 276.134 4.86C277.174 4.86 278.094 5.08667 278.894 5.54C279.694 5.99333 280.307 6.62 280.734 7.42C281.174 8.20667 281.394 9.1 281.394 10.1ZM279.514 9.72C279.514 9.02667 279.36 8.43333 279.054 7.94C278.747 7.43333 278.327 7.05333 277.794 6.8C277.274 6.53333 276.694 6.4 276.054 6.4C275.134 6.4 274.347 6.69333 273.694 7.28C273.054 7.86667 272.687 8.68 272.594 9.72H279.514ZM283.116 10.48C283.116 9.36 283.343 8.38 283.796 7.54C284.249 6.68667 284.869 6.02667 285.656 5.56C286.456 5.09333 287.349 4.86 288.336 4.86C289.189 4.86 289.983 5.06 290.716 5.46C291.449 5.84667 292.009 6.36 292.396 7V1.2H294.236V16H292.396V13.94C292.036 14.5933 291.503 15.1333 290.796 15.56C290.089 15.9733 289.263 16.18 288.316 16.18C287.343 16.18 286.456 15.94 285.656 15.46C284.869 14.98 284.249 14.3067 283.796 13.44C283.343 12.5733 283.116 11.5867 283.116 10.48ZM292.396 10.5C292.396 9.67333 292.229 8.95333 291.896 8.34C291.563 7.72667 291.109 7.26 290.536 6.94C289.976 6.60667 289.356 6.44 288.676 6.44C287.996 6.44 287.376 6.6 286.816 6.92C286.256 7.24 285.809 7.70667 285.476 8.32C285.143 8.93333 284.976 9.65333 284.976 10.48C284.976 11.32 285.143 12.0533 285.476 12.68C285.809 13.2933 286.256 13.7667 286.816 14.1C287.376 14.42 287.996 14.58 288.676 14.58C289.356 14.58 289.976 14.42 290.536 14.1C291.109 13.7667 291.563 13.2933 291.896 12.68C292.229 12.0533 292.396 11.3267 292.396 10.5ZM304.464 7.08C304.837 6.42667 305.384 5.89333 306.104 5.48C306.824 5.06667 307.644 4.86 308.564 4.86C309.55 4.86 310.437 5.09333 311.224 5.56C312.01 6.02667 312.63 6.68667 313.084 7.54C313.537 8.38 313.764 9.36 313.764 10.48C313.764 11.5867 313.537 12.5733 313.084 13.44C312.63 14.3067 312.004 14.98 311.204 15.46C310.417 15.94 309.537 16.18 308.564 16.18C307.617 16.18 306.784 15.9733 306.064 15.56C305.357 15.1467 304.824 14.62 304.464 13.98V16H302.644V1.2H304.464V7.08ZM311.904 10.48C311.904 9.65333 311.737 8.93333 311.404 8.32C311.07 7.70667 310.617 7.24 310.044 6.92C309.484 6.6 308.864 6.44 308.184 6.44C307.517 6.44 306.897 6.60667 306.324 6.94C305.764 7.26 305.31 7.73333 304.964 8.36C304.63 8.97333 304.464 9.68667 304.464 10.5C304.464 11.3267 304.63 12.0533 304.964 12.68C305.31 13.2933 305.764 13.7667 306.324 14.1C306.897 14.42 307.517 14.58 308.184 14.58C308.864 14.58 309.484 14.42 310.044 14.1C310.617 13.7667 311.07 13.2933 311.404 12.68C311.737 12.0533 311.904 11.32 311.904 10.48ZM326.159 10.1C326.159 10.4467 326.139 10.8133 326.099 11.2H317.339C317.406 12.28 317.772 13.1267 318.439 13.74C319.119 14.34 319.939 14.64 320.899 14.64C321.686 14.64 322.339 14.46 322.859 14.1C323.392 13.7267 323.766 13.2333 323.979 12.62H325.939C325.646 13.6733 325.059 14.5333 324.179 15.2C323.299 15.8533 322.206 16.18 320.899 16.18C319.859 16.18 318.926 15.9467 318.099 15.48C317.286 15.0133 316.646 14.3533 316.179 13.5C315.712 12.6333 315.479 11.6333 315.479 10.5C315.479 9.36667 315.706 8.37333 316.159 7.52C316.612 6.66667 317.246 6.01333 318.059 5.56C318.886 5.09333 319.832 4.86 320.899 4.86C321.939 4.86 322.859 5.08667 323.659 5.54C324.459 5.99333 325.072 6.62 325.499 7.42C325.939 8.20667 326.159 9.1 326.159 10.1ZM324.279 9.72C324.279 9.02667 324.126 8.43333 323.819 7.94C323.512 7.43333 323.092 7.05333 322.559 6.8C322.039 6.53333 321.459 6.4 320.819 6.4C319.899 6.4 319.112 6.69333 318.459 7.28C317.819 7.86667 317.452 8.68 317.359 9.72H324.279ZM330.381 1.2V16H328.561V1.2H330.381ZM338.263 16.18C337.237 16.18 336.303 15.9467 335.463 15.48C334.637 15.0133 333.983 14.3533 333.503 13.5C333.037 12.6333 332.803 11.6333 332.803 10.5C332.803 9.38 333.043 8.39333 333.523 7.54C334.017 6.67333 334.683 6.01333 335.523 5.56C336.363 5.09333 337.303 4.86 338.343 4.86C339.383 4.86 340.323 5.09333 341.163 5.56C342.003 6.01333 342.663 6.66667 343.143 7.52C343.637 8.37333 343.883 9.36667 343.883 10.5C343.883 11.6333 343.63 12.6333 343.123 13.5C342.63 14.3533 341.957 15.0133 341.103 15.48C340.25 15.9467 339.303 16.18 338.263 16.18ZM338.263 14.58C338.917 14.58 339.53 14.4267 340.103 14.12C340.677 13.8133 341.137 13.3533 341.483 12.74C341.843 12.1267 342.023 11.38 342.023 10.5C342.023 9.62 341.85 8.87333 341.503 8.26C341.157 7.64667 340.703 7.19333 340.143 6.9C339.583 6.59333 338.977 6.44 338.323 6.44C337.657 6.44 337.043 6.59333 336.483 6.9C335.937 7.19333 335.497 7.64667 335.163 8.26C334.83 8.87333 334.663 9.62 334.663 10.5C334.663 11.3933 334.823 12.1467 335.143 12.76C335.477 13.3733 335.917 13.8333 336.463 14.14C337.01 14.4333 337.61 14.58 338.263 14.58ZM360.876 5.04L357.456 16H355.576L352.936 7.3L350.296 16H348.416L344.976 5.04H346.836L349.356 14.24L352.076 5.04H353.936L356.596 14.26L359.076 5.04H360.876Z" fill="white"/>
</svg>
