<svg width="872" height="222" viewBox="0 0 872 222" fill="none" xmlns="http://www.w3.org/2000/svg">
<g clip-path="url(#clip0_48_168)">
<g filter="url(#filter0_f_48_168)">
<ellipse cx="435.993" cy="-20.6927" rx="63.2556" ry="194.714" transform="rotate(88.8036 435.993 -20.6927)" fill="url(#paint0_radial_48_168)" fill-opacity="0.7"/>
</g>
<path d="M385.675 34.6C388.213 34.6 390.272 35.3787 391.851 36.936C393.451 38.472 394.251 40.488 394.251 42.984C394.251 45.48 393.451 47.5067 391.851 49.064C390.272 50.6213 388.213 51.4 385.675 51.4H375.115V57H368.075V34.6H385.675ZM384.075 45.448C384.523 45.448 384.875 45.4373 385.131 45.416C385.408 45.3733 385.728 45.288 386.091 45.16C386.475 45.0107 386.752 44.7547 386.923 44.392C387.115 44.0293 387.211 43.56 387.211 42.984C387.211 42.408 387.115 41.9493 386.923 41.608C386.752 41.2453 386.475 41 386.091 40.872C385.728 40.7227 385.408 40.6373 385.131 40.616C384.875 40.5733 384.523 40.552 384.075 40.552H375.115V45.448H384.075ZM421.938 42.984C421.938 44.6907 421.544 46.2053 420.754 47.528C419.986 48.8293 418.92 49.8107 417.554 50.472L421.586 57H413.266L409.938 51.4H402.802V57H395.762V34.6H413.362C415.901 34.6 417.96 35.3787 419.538 36.936C421.138 38.472 421.938 40.488 421.938 42.984ZM402.802 40.552V45.448H411.762C412.21 45.448 412.562 45.4373 412.818 45.416C413.096 45.3733 413.416 45.288 413.778 45.16C414.162 45.0107 414.44 44.7547 414.61 44.392C414.802 44.0293 414.898 43.56 414.898 42.984C414.898 42.408 414.802 41.9493 414.61 41.608C414.44 41.2453 414.162 41 413.778 40.872C413.416 40.7227 413.096 40.6373 412.818 40.616C412.562 40.5733 412.21 40.552 411.762 40.552H402.802ZM430.396 34.6V57H423.356V34.6H430.396ZM431.817 49.192H438.857C438.857 49.8107 439.06 50.3013 439.465 50.664C439.892 51.0267 440.681 51.3147 441.833 51.528C442.985 51.7413 444.585 51.848 446.633 51.848C449.279 51.848 451.06 51.72 451.977 51.464C452.916 51.1867 453.385 50.7173 453.385 50.056C453.385 49.8 453.353 49.5973 453.289 49.448C453.225 49.2773 453.087 49.128 452.873 49C452.66 48.8507 452.404 48.744 452.105 48.68C451.828 48.5947 451.38 48.52 450.761 48.456C450.164 48.392 449.524 48.3387 448.841 48.296C448.159 48.2533 447.252 48.2107 446.121 48.168C441.044 47.976 437.471 47.368 435.401 46.344C433.353 45.32 432.329 43.5493 432.329 41.032C432.329 38.6427 433.46 36.9253 435.721 35.88C438.004 34.8133 441.385 34.28 445.865 34.28C450.345 34.28 453.727 34.888 456.009 36.104C458.313 37.32 459.465 39.2933 459.465 42.024H452.425C452.425 41.1493 451.881 40.552 450.793 40.232C449.705 39.912 447.849 39.752 445.225 39.752C442.879 39.752 441.311 39.8693 440.521 40.104C439.753 40.3173 439.369 40.744 439.369 41.384C439.369 42.024 439.764 42.44 440.553 42.632C441.343 42.824 443.199 42.984 446.121 43.112C447.252 43.176 448.191 43.2293 448.937 43.272C449.705 43.3147 450.548 43.3787 451.465 43.464C452.404 43.5493 453.172 43.6453 453.769 43.752C454.367 43.8587 455.007 44.008 455.689 44.2C456.393 44.3707 456.959 44.5733 457.385 44.808C457.812 45.0427 458.239 45.32 458.665 45.64C459.092 45.96 459.423 46.3227 459.657 46.728C459.892 47.1333 460.073 47.6027 460.201 48.136C460.351 48.648 460.425 49.224 460.425 49.864C460.425 51.0587 460.212 52.0933 459.785 52.968C459.359 53.8427 458.761 54.5573 457.993 55.112C457.225 55.6667 456.233 56.1147 455.017 56.456C453.823 56.776 452.532 57 451.145 57.128C449.78 57.256 448.169 57.32 446.313 57.32C443.881 57.32 441.823 57.2027 440.137 56.968C438.452 56.7333 436.959 56.3173 435.657 55.72C434.356 55.1227 433.385 54.2907 432.745 53.224C432.127 52.136 431.817 50.792 431.817 49.192ZM496.223 34.6V57H489.183V43.944L481.471 57H476.671L468.959 43.912V57H461.919V34.6H470.943L479.103 48.904L487.231 34.6H496.223ZM364.224 80.192H371.264C371.264 80.8107 371.466 81.3013 371.872 81.664C372.298 82.0267 373.088 82.3147 374.24 82.528C375.392 82.7413 376.992 82.848 379.04 82.848C381.685 82.848 383.466 82.72 384.384 82.464C385.322 82.1867 385.792 81.7173 385.792 81.056C385.792 80.8 385.76 80.5973 385.696 80.448C385.632 80.2773 385.493 80.128 385.28 80C385.066 79.8507 384.81 79.744 384.512 79.68C384.234 79.5947 383.786 79.52 383.168 79.456C382.57 79.392 381.93 79.3387 381.248 79.296C380.565 79.2533 379.658 79.2107 378.528 79.168C373.45 78.976 369.877 78.368 367.808 77.344C365.76 76.32 364.736 74.5493 364.736 72.032C364.736 69.6427 365.866 67.9253 368.128 66.88C370.41 65.8133 373.792 65.28 378.272 65.28C382.752 65.28 386.133 65.888 388.416 67.104C390.72 68.32 391.872 70.2933 391.872 73.024H384.832C384.832 72.1493 384.288 71.552 383.2 71.232C382.112 70.912 380.256 70.752 377.632 70.752C375.285 70.752 373.717 70.8693 372.928 71.104C372.16 71.3173 371.776 71.744 371.776 72.384C371.776 73.024 372.17 73.44 372.96 73.632C373.749 73.824 375.605 73.984 378.528 74.112C379.658 74.176 380.597 74.2293 381.344 74.272C382.112 74.3147 382.954 74.3787 383.872 74.464C384.81 74.5493 385.578 74.6453 386.176 74.752C386.773 74.8587 387.413 75.008 388.096 75.2C388.8 75.3707 389.365 75.5733 389.792 75.808C390.218 76.0427 390.645 76.32 391.072 76.64C391.498 76.96 391.829 77.3227 392.064 77.728C392.298 78.1333 392.48 78.6027 392.608 79.136C392.757 79.648 392.832 80.224 392.832 80.864C392.832 82.0587 392.618 83.0933 392.192 83.968C391.765 84.8427 391.168 85.5573 390.4 86.112C389.632 86.6667 388.64 87.1147 387.424 87.456C386.229 87.776 384.938 88 383.552 88.128C382.186 88.256 380.576 88.32 378.72 88.32C376.288 88.32 374.229 88.2027 372.544 87.968C370.858 87.7333 369.365 87.3173 368.064 86.72C366.762 86.1227 365.792 85.2907 365.152 84.224C364.533 83.136 364.224 81.792 364.224 80.192ZM397.084 85.44C394.823 83.52 393.692 80.6293 393.692 76.768C393.692 72.9067 394.823 70.0267 397.084 68.128C399.346 66.2293 402.908 65.28 407.772 65.28C412.252 65.28 415.644 66.112 417.948 67.776C420.274 69.4187 421.543 71.9253 421.756 75.296H414.588C414.375 73.888 413.714 72.864 412.604 72.224C411.495 71.5627 409.884 71.232 407.772 71.232C405.212 71.232 403.399 71.7013 402.332 72.64C401.266 73.5573 400.732 74.9333 400.732 76.768C400.732 78.624 401.266 80.0213 402.332 80.96C403.399 81.8987 405.212 82.368 407.772 82.368C409.884 82.368 411.495 82.0373 412.604 81.376C413.714 80.7147 414.375 79.6693 414.588 78.24H421.756C421.543 81.632 420.274 84.16 417.948 85.824C415.644 87.488 412.252 88.32 407.772 88.32C402.908 88.32 399.346 87.36 397.084 85.44ZM442.985 88L441.065 83.616H429.513L427.593 88H419.817L430.249 65.6H440.329L450.729 88H442.985ZM431.753 78.56H438.825L435.305 70.528L431.753 78.56ZM458.771 82.048H474.771V88H451.731V65.6H458.771V82.048ZM500.067 71.072H483.427V74.4H500.067V79.2H483.427V82.528H500.067V88H476.387V65.6H500.067V71.072Z" fill="white"/>
</g>
<defs>
<filter id="filter0_f_48_168" x="41.3164" y="-284.067" width="789.353" height="526.749" filterUnits="userSpaceOnUse" color-interpolation-filters="sRGB">
<feFlood flood-opacity="0" result="BackgroundImageFix"/>
<feBlend mode="normal" in="SourceGraphic" in2="BackgroundImageFix" result="shape"/>
<feGaussianBlur stdDeviation="100" result="effect1_foregroundBlur_48_168"/>
</filter>
<radialGradient id="paint0_radial_48_168" cx="0" cy="0" r="1" gradientUnits="userSpaceOnUse" gradientTransform="translate(435.993 -20.6927) rotate(90) scale(194.714 63.2556)">
<stop stop-color="#F4F4F4"/>
<stop offset="1" stop-color="#120082"/>
</radialGradient>
<clipPath id="clip0_48_168">
<rect width="872" height="222" fill="white"/>
</clipPath>
</defs>
</svg>
