<svg width="210" height="58" viewBox="0 0 210 58" fill="none" xmlns="http://www.w3.org/2000/svg">
<path d="M65.5436 30.144H68.4236C68.4236 31.328 69.3836 31.872 73.0316 31.872C76.0556 31.872 76.9676 31.536 76.9676 30.656C76.9676 29.728 76.3276 29.568 72.6956 29.392C67.8156 29.168 65.8796 28.4 65.8796 25.888C65.8796 23.424 68.3916 22.64 72.5836 22.64C76.8076 22.64 79.3676 23.696 79.3676 26.464H76.4876C76.4876 25.232 75.2556 24.928 72.2636 24.928C69.4316 24.928 68.7596 25.2 68.7596 26.032C68.7596 26.896 69.4316 27.056 72.6956 27.248C77.1116 27.488 79.8476 27.728 79.8476 30.56C79.8476 33.552 77.0156 34.16 72.8716 34.16C68.2796 34.16 65.5436 33.376 65.5436 30.144ZM91.3373 24.576H94.0733V34H91.3373V32.352C89.9933 33.408 88.1373 34.16 85.8493 34.16C83.3373 34.16 80.9853 33.264 80.9533 29.792L80.9853 24.576H83.7373V28.752C83.7373 30.752 84.4093 31.792 86.6653 31.792C88.5052 31.792 90.4893 30.848 91.3373 29.856V24.576ZM102.722 24.416C105.746 24.416 108.338 25.696 108.338 29.296C108.338 32.896 105.746 34.16 102.722 34.16C100.69 34.16 99.0418 33.6 98.0178 32.528V34H95.2818V21.2H98.0178V26.048C99.0418 24.976 100.69 24.416 102.722 24.416ZM101.81 31.872C104.258 31.872 105.586 31.152 105.586 29.296C105.586 27.424 104.258 26.704 101.81 26.704C99.3618 26.704 98.0178 27.424 98.0178 29.296C98.0178 31.152 99.3618 31.872 101.81 31.872ZM125.728 24.416C127.84 24.416 129.76 25.312 129.792 28.72L129.76 34H127.024V29.824C127.024 27.824 126.688 26.784 124.736 26.784C123.296 26.784 121.888 27.472 121.056 28.224C121.072 28.384 121.072 28.544 121.072 28.72L121.04 34H118.304V29.824C118.304 27.824 117.968 26.784 116.016 26.784C114.432 26.784 112.896 27.6 112.112 28.448V34H109.376V24.576H112.112V26.112C113.136 25.296 114.672 24.416 117.008 24.416C118.432 24.416 119.776 24.832 120.496 26.144C121.712 25.232 123.392 24.416 125.728 24.416ZM131.079 21.2H133.815V23.584H131.079V21.2ZM131.079 24.576H133.815V34H131.079V24.576ZM144.458 26.864H139.994V29.584C139.994 31.408 140.346 31.872 142.01 31.872C142.874 31.872 143.354 31.872 144.458 31.712V33.92C143.546 34.08 142.506 34.16 141.242 34.16C138.81 34.16 137.242 33.248 137.242 31.168V26.864H134.762V24.576H137.242V22.624L139.994 21.84V24.576H144.458V26.864Z" fill="white"/>
</svg>
